<?xml version="1.0" encoding="UTF-8"?>
<svg width="304px" height="88px" viewBox="0 0 304 88" version="1.1" xmlns="http://www.w3.org/2000/svg" xmlns:xlink="http://www.w3.org/1999/xlink">
    <!-- Generator: Sketch 52.6 (67491) - http://www.bohemiancoding.com/sketch -->
    <title>logo_FE</title>
    <desc>Created with Sketch.</desc>
    <defs>
        <polygon id="path-1" points="0 0.47426087 144.693127 0.47426087 144.693127 35.9686957 0 35.9686957"></polygon>
        <polygon id="path-3" points="0.2067 0.47426087 52.80284 0.47426087 52.80284 35.9686957 0.2067 35.9686957"></polygon>
    </defs>
    <g id="Page-1" stroke="none" stroke-width="1" fill="none" fill-rule="evenodd">
        <g id="Land" transform="translate(-39.000000, -48.000000)">
            <g id="logo_FE" transform="translate(39.000000, 48.000000)">
                <g id="Group-6" transform="translate(0.000000, 52.000000)">
                    <mask id="mask-2" fill="white">
                        <use xlink:href="#path-1"></use>
                    </mask>
                    <g id="Clip-2"></g>
                    <polyline id="Fill-1" fill="#FFFFFF" mask="url(#mask-2)" points="27.7160909 27.8504348 27.7160909 35.3165217 0 35.3165217 0 1.15773913 27.0744 1.15773913 27.0744 8.62382609 9.66596364 8.62382609 9.66596364 14.3817391 25.0038 14.3817391 25.0038 21.6041739 9.66596364 21.6041739 9.66596364 27.8504348 27.7160909 27.8504348"></polyline>
                    <path d="M49.0701091,27.6062609 C52.0291636,27.6062609 54.4034727,26.7772174 56.1962,25.118087 C57.9873455,23.4589565 58.8837091,21.1648696 58.8837091,18.2373913 C58.8837091,15.3093913 57.9873455,13.0158261 56.1962,11.3561739 C54.4034727,9.69704348 52.0291636,8.868 49.0701091,8.868 L42.9052364,8.868 L42.9052364,27.6062609 L49.0701091,27.6062609 Z M33.1406727,1.15773913 L49.4645091,1.15773913 C53.2450545,1.15773913 56.5985091,1.8573913 59.5254,3.25565217 C62.4507091,4.65495652 64.7190364,6.63965217 66.3309091,9.20973913 C67.9412,11.7798261 68.7468727,14.7892174 68.7468727,18.2373913 C68.7468727,21.686087 67.9412,24.6954783 66.3309091,27.2650435 C64.7190364,29.8351304 62.4507091,31.8203478 59.5254,33.2186087 C56.5985091,34.6173913 53.2450545,35.3165217 49.4645091,35.3165217 L33.1406727,35.3165217 L33.1406727,1.15773913 Z" id="Fill-3" fill="#FFFFFF" mask="url(#mask-2)"></path>
                    <path d="M77.8449636,31.8521739 C75.0013818,29.0869565 73.5793273,25.1666087 73.5793273,20.0916522 L73.5793273,1.15773913 L83.3438909,1.15773913 L83.3438909,19.7989565 C83.3438909,25.2641739 85.5299636,27.9970435 89.9036909,27.9970435 C94.2431455,27.9970435 96.4128727,25.2641739 96.4128727,19.7989565 L96.4128727,1.15773913 L106.0298,1.15773913 L106.0298,20.0916522 C106.0298,25.1666087 104.607218,29.0869565 101.764164,31.8521739 C98.9200545,34.6173913 94.9333455,36 89.8050909,36 C84.6757818,36 80.6890727,34.6173913 77.8449636,31.8521739" id="Fill-4" fill="#D8127D" mask="url(#mask-2)"></path>
                    <path d="M120.109564,33.7309565 C117.232236,32.217913 114.971818,30.1121739 113.328309,27.4111304 C111.683745,24.7116522 110.862782,21.6532174 110.862782,18.2373913 C110.862782,14.8210435 111.683745,11.7636522 113.328309,9.06313043 C114.971818,6.36313043 117.232236,4.25634783 120.109564,2.74330435 C122.986364,1.23078261 126.232782,0.47426087 129.849345,0.47426087 C133.0056,0.47426087 135.849182,1.02834783 138.381145,2.1333913 C140.911527,3.24 143.016927,4.83443478 144.693127,6.91565217 L138.479745,12.4789565 C136.243582,9.81182609 133.531291,8.47721739 130.342873,8.47721739 C128.468418,8.47721739 126.7996,8.88469565 125.336945,9.69704348 C123.873764,10.5109565 122.7396,11.6577391 121.934455,13.1373913 C121.128255,14.6186087 120.725945,16.317913 120.725945,18.2373913 C120.725945,20.1573913 121.128255,21.8566957 121.934455,23.3363478 C122.7396,24.8170435 123.873764,25.9643478 125.336945,26.7772174 C126.7996,27.5906087 128.468418,27.9970435 130.342873,27.9970435 C133.531291,27.9970435 136.243582,26.6634783 138.479745,23.9953043 L144.693127,29.5586087 C143.016927,31.6408696 140.911527,33.2353043 138.381145,34.3408696 C135.849182,35.445913 133.0056,36 129.849345,36 C126.232782,36 122.986364,35.244 120.109564,33.7309565" id="Fill-5" fill="#FFFFFF" mask="url(#mask-2)"></path>
                </g>
                <path d="M168.3248,73.303096 L163.900963,62.4229506 L159.478702,73.303096 L168.3248,73.303096 Z M171.17455,80.3943273 L156.629477,80.3943273 L153.926839,87 L144,87 L159.185005,53 L168.766658,53 L184,87 L173.877189,87 L171.17455,80.3943273 Z" id="Fill-7" fill="#FFFFFF"></path>
                <polyline id="Fill-8" fill="#FFFFFF" points="191.629176 60.6256052 181 60.6256052 181 53 212 53 212 60.6256052 201.419456 60.6256052 201.419456 87 191.629176 87 191.629176 60.6256052"></polyline>
                <g id="Group-12" transform="translate(214.000000, 52.000000)">
                    <mask id="mask-4" fill="white">
                        <use xlink:href="#path-3"></use>
                    </mask>
                    <g id="Clip-10"></g>
                    <polygon id="Fill-9" fill="#FFFFFF" mask="url(#mask-4)" points="0.2067 35.3165217 10.02283 35.3165217 10.02283 1.15773913 0.2067 1.15773913"></polygon>
                    <path d="M38.27766,26.7772174 C39.69859,25.9643478 40.82272,24.8170435 41.64846,23.3363478 C42.47473,21.8566957 42.8876,20.1573913 42.8876,18.2373913 C42.8876,16.317913 42.47473,14.6186087 41.64846,13.1373913 C40.82272,11.6577391 39.69859,10.5109565 38.27766,9.69704348 C36.85673,8.88469565 35.27044,8.47721739 33.51879,8.47721739 C31.76714,8.47721739 30.18085,8.88469565 28.76045,9.69704348 C27.33899,10.5109565 26.21592,11.6577391 25.38912,13.1373913 C24.56285,14.6186087 24.14945,16.317913 24.14945,18.2373913 C24.14945,20.1573913 24.56285,21.8566957 25.38912,23.3363478 C26.21592,24.8170435 27.33899,25.9643478 28.76045,26.7772174 C30.18085,27.5906087 31.76714,27.9970435 33.51879,27.9970435 C35.27044,27.9970435 36.85673,27.5906087 38.27766,26.7772174 Z M23.62952,33.705913 C20.70445,32.1777391 18.40743,30.0636522 16.73952,27.3631304 C15.06949,24.6626087 14.23527,21.6213913 14.23527,18.2373913 C14.23527,14.853913 15.06949,11.8126957 16.73952,9.11217391 C18.40743,6.41165217 20.70445,4.29756522 23.62952,2.76782609 C26.55459,1.23913043 29.85119,0.47426087 33.51879,0.47426087 C37.18745,0.47426087 40.48405,1.23913043 43.40859,2.76782609 C46.33313,4.29756522 48.63015,6.41165217 50.29912,9.11217391 C51.96809,11.8126957 52.80284,14.853913 52.80284,18.2373913 C52.80284,21.6213913 51.96809,24.6626087 50.29912,27.3631304 C48.63015,30.0636522 46.33313,32.1777391 43.40859,33.705913 C40.48405,35.2361739 37.18745,36 33.51879,36 C29.85119,36 26.55459,35.2361739 23.62952,33.705913 Z" id="Fill-11" fill="#FFFFFF" mask="url(#mask-4)"></path>
                </g>
                <polyline id="Fill-13" fill="#FFFFFF" points="303 53 303 87 294.923233 87 279.612551 68.8826962 279.612551 87 270 87 270 53 278.076767 53 293.387449 71.1167845 293.387449 53 303 53"></polyline>
                <polyline id="Fill-14" fill="#FFFFFF" points="10.7375411 8.64983504 10.7375411 16.349386 25.9346044 16.349386 25.9346044 23.9997556 10.7375411 23.9997556 10.7375411 36 1 36 1 1 28 1 28 8.64983504 10.7375411 8.64983504"></polyline>
                <path d="M53.6883795,26.6540953 C55.088418,25.8303741 56.1960202,24.6682822 57.0101418,23.1678195 C57.8237412,21.6678856 58.2310631,19.9458959 58.2310631,18.0002644 C58.2310631,16.0551615 57.8237412,14.3331718 57.0101418,12.8327092 C56.1960202,11.3327753 55.088418,10.1706834 53.6883795,9.34643345 C52.288341,8.52271225 50.725896,8.10979425 48.9994778,8.10979425 C47.2735818,8.10979425 45.7111368,8.52271225 44.3110983,9.34643345 C42.9105376,10.1706834 41.8034576,11.3327753 40.9898582,12.8327092 C40.1752144,14.3331718 39.7684147,16.0551615 39.7684147,18.0002644 C39.7684147,19.9458959 40.1752144,21.6678856 40.9898582,23.1678195 C41.8034576,24.6682822 42.9105376,25.8303741 44.3110983,26.6540953 C45.7111368,27.4783452 47.2735818,27.8902058 48.9994778,27.8902058 C50.725896,27.8902058 52.288341,27.4783452 53.6883795,26.6540953 Z M39.2556069,33.6758162 C36.3740655,32.1261841 34.1102957,29.9844032 32.4663863,27.2473014 C30.8219547,24.511257 30,21.42944 30,18.0002644 C30,14.5716174 30.8219547,11.4898004 32.4663863,8.75269859 C34.1102957,6.01665418 36.3740655,3.87381592 39.2556069,2.32471252 C42.1376704,0.775609111 45.3858015,0 48.9994778,0 C52.6141985,0 55.8623296,0.775609111 58.7438709,2.32471252 C61.6254123,3.87381592 63.8886599,6.01665418 65.5330915,8.75269859 C67.1770009,11.4898004 68,14.5716174 68,18.0002644 C68,21.42944 67.1770009,24.511257 65.5330915,27.2473014 C63.8886599,29.9844032 61.6254123,32.1261841 58.7438709,33.6758162 C55.8623296,35.225977 52.6141985,36 48.9994778,36 C45.3858015,36 42.1376704,35.225977 39.2556069,33.6758162 Z" id="Fill-15" fill="#FFFFFF"></path>
                <path d="M92.8454423,10.1498656 C91.8195667,9.24963343 90.2982578,8.80005193 88.2804549,8.80005193 L82.8232632,8.80005193 L82.8232632,19.0500825 L88.2804549,19.0500825 C90.2982578,19.0500825 91.8195667,18.6079851 92.8454423,17.7248595 C93.8697267,16.8422685 94.3831949,15.5833333 94.3831949,13.9501924 C94.3831949,12.3170516 93.8697267,11.0500978 92.8454423,10.1498656 Z M88.1812621,26.6999175 L82.8232632,26.6999175 L82.8232632,36 L73,36 L73,1 L88.8761417,1 C92.0179522,1 94.7470784,1.52495723 97.0619292,2.5748717 C99.3773103,3.62478617 101.16331,5.12481672 102.420459,7.07496334 C103.677077,9.02457539 104.305651,11.316853 104.305651,13.9501924 C104.305651,16.4830309 103.718451,18.6924487 102.544582,20.5752383 C101.370183,22.4585624 99.6918627,23.9334677 97.5090921,24.9999542 L105,36 L94.4823877,36 L88.1812621,26.6999175 Z" id="Fill-16" fill="#D8127D"></path>
                <path d="M116.446408,34.9616249 C113.800831,34.2690223 111.652558,33.3469622 110,32.1922721 L113.222939,24.9728158 C114.776354,25.9948011 116.577892,26.8195797 118.627551,27.4450368 C120.677211,28.0715513 122.694,28.3845442 124.677918,28.3845442 C128.446408,28.3845442 130.331183,27.4450368 130.331183,25.5660219 C130.331183,24.5768163 129.793055,23.8435035 128.719449,23.3650262 C127.644782,22.8876063 125.917469,22.3848086 123.53751,21.8571617 C120.925334,21.297264 118.74366,20.6950698 116.991429,20.0526942 C115.239198,19.4097898 113.735089,18.3793453 112.479102,16.9618892 C111.222585,15.5449619 110.594857,13.63211 110.594857,11.2254483 C110.594857,9.1159184 111.172749,7.21205446 112.330123,5.51385646 C113.487497,3.81618716 115.214279,2.4727497 117.512592,1.48354408 C119.809313,0.494867163 122.627728,0 125.966776,0 C128.248122,0 130.496068,0.255892849 132.711143,0.766621139 C134.925687,1.27840684 136.876204,2.02758074 138.562163,3.01678636 L135.53751,10.2859409 C132.231864,8.50579372 129.0243,7.61598449 125.917469,7.61598449 C123.966422,7.61598449 122.545551,7.9041283 121.652735,8.48094462 C120.760449,9.05828964 120.314041,9.80852095 120.314041,10.7311098 C120.314041,11.6542274 120.842096,12.3463013 121.900857,12.8078601 C122.958558,13.2699476 124.660953,13.7473675 127.008041,14.241706 C129.653088,14.8026611 131.843245,15.4037979 133.57904,16.0467022 C135.314306,16.6896066 136.818415,17.7121205 138.091367,19.1126581 C139.363789,20.514253 140,22.4181169 140,24.8242499 C140,26.9015288 139.421578,28.780015 138.264734,30.4618231 C137.10683,32.1431026 135.371565,33.4865401 133.058408,34.4921355 C130.74366,35.4972023 127.933728,36 124.628082,36 C121.81762,36 119.090395,35.6536987 116.446408,34.9616249" id="Fill-17" fill="#FFFFFF"></path>
                <polyline id="Fill-18" fill="#FFFFFF" points="178.056821 36 177.958573 17.4500855 169.113116 32.5498228 164.788636 32.5498228 155.993091 17.9493829 155.993091 36 147 36 147 1 155.010087 1 167.098773 21.1996273 178.892715 1 186.902803 1 187 36 178.056821 36"></polyline>
                <path d="M216.324686,21.8999267 L211.902016,10.6999481 L207.479871,21.8999267 L216.324686,21.8999267 Z M219.173836,29.2001466 L204.629146,29.2001466 L201.926578,36 L192,36 L207.184606,1 L216.767059,1 L232,36 L221.877455,36 L219.173836,29.2001466 Z" id="Fill-19" fill="#FFFFFF"></path>
                <path d="M256.845442,10.1498656 C255.820628,9.24963343 254.298258,8.80005193 252.281516,8.80005193 L246.823794,8.80005193 L246.823794,19.0500825 L252.281516,19.0500825 C254.298258,19.0500825 255.820628,18.6079851 256.845442,17.7248595 C257.870257,16.8422685 258.383195,15.5833333 258.383195,13.9501924 C258.383195,12.3170516 257.870257,11.0500978 256.845442,10.1498656 Z M252.181262,26.6999175 L246.823794,26.6999175 L246.823794,36 L237,36 L237,1 L252.876142,1 C256.019013,1 258.746548,1.52495723 261.061929,2.5748717 C263.37731,3.62478617 265.16331,5.12481672 266.420989,7.07496334 C267.677607,9.02457539 268.305651,11.316853 268.305651,13.9501924 C268.305651,16.4830309 267.717921,18.6924487 266.544582,20.5752383 C265.370183,22.4585624 263.691332,23.9334677 261.509092,24.9999542 L269,36 L258.482918,36 L252.181262,26.6999175 Z" id="Fill-20" fill="#FFFFFF"></path>
                <polyline id="Fill-21" fill="#FFFFFF" points="282.630595 8.84976784 272 8.84976784 272 1 303 1 303 8.84976784 292.419624 8.84976784 292.419624 36 282.630595 36 282.630595 8.84976784"></polyline>
                <polygon id="Fill-22" fill="#D8127D" points="73 54 83 54 83 33 73 33"></polygon>
                <path d="M121.668616,46.5850768 C122.015267,46.3812744 122.288546,46.0956169 122.485797,45.729218 C122.684111,45.363376 122.783002,44.9541007 122.783002,44.4991647 C122.783002,44.0453425 122.684111,43.6360671 122.485797,43.2702251 C122.288546,42.9043831 122.015267,42.6181688 121.668616,42.4143664 C121.322497,42.2100072 120.932781,42.1075491 120.499468,42.1075491 C120.066155,42.1075491 119.676439,42.2100072 119.329789,42.4143664 C118.98367,42.6181688 118.71039,42.9043831 118.51314,43.2702251 C118.314294,43.6360671 118.215935,44.0453425 118.215935,44.4991647 C118.215935,44.9541007 118.314294,45.363376 118.51314,45.729218 C118.71039,46.0956169 118.98367,46.3812744 119.329789,46.5850768 C119.676439,46.789436 120.066155,46.891894 120.499468,46.891894 C120.932781,46.891894 121.322497,46.789436 121.668616,46.5850768 Z M118.7072,47.5484051 C118.175528,47.2465993 117.757633,46.8289714 117.45458,46.2938509 C117.150995,45.7587304 117,45.1606873 117,44.4991647 C117,43.8387559 117.150995,43.2407128 117.45458,42.7055922 C117.757633,42.1710286 118.175528,41.7528438 118.7072,41.4515949 C119.239936,41.1497892 119.837536,41 120.499468,41 C121.162464,41 121.758469,41.1497892 122.291205,41.4515949 C122.823409,41.7528438 123.241303,42.1699149 123.544357,42.7005807 C123.84741,43.2323602 124,43.8326307 124,44.4991647 C124,45.1673693 123.84741,45.767083 123.544357,46.2977488 C123.241303,46.8300851 122.823409,47.2465993 122.291205,47.5484051 C121.758469,47.8490971 121.162464,48 120.499468,48 C119.837536,48 119.239936,47.8490971 118.7072,47.5484051 Z" id="Fill-23" fill="#D8127D"></path>
                <path d="M128.601819,47.1423662 C129.024088,47.1423662 129.344781,47.059892 129.564864,46.8939617 C129.78398,46.7285223 129.89378,46.4889543 129.89378,46.1742759 C129.89378,45.556701 129.463287,45.2488954 128.601819,45.2488954 L127.081068,45.2488954 L127.081068,47.1423662 L128.601819,47.1423662 Z M126,42 L130.603367,42 L130.603367,42.9170349 L127.081068,42.9170349 L127.081068,44.3912617 L128.830125,44.3912617 C129.539228,44.3912617 130.078069,44.5409917 130.447132,44.8414335 C130.815711,45.1408935 131,45.5743741 131,46.1399116 C131,46.7344134 130.79733,47.1929308 130.39199,47.5154639 C129.98665,47.838488 129.409113,48 128.660346,48 L126,48 L126,42 Z" id="Fill-24" fill="#D8127D"></path>
                <path d="M137.506792,45.0171821 C137.756474,44.8119784 137.88156,44.5169367 137.88156,44.1345115 C137.88156,43.7515955 137.756474,43.4575356 137.506792,43.2508591 C137.256621,43.0456554 136.889182,42.9430535 136.405942,42.9430535 L135.108668,42.9430535 L135.108668,45.3259696 L136.405942,45.3259696 C136.889182,45.3259696 137.256621,45.2228768 137.506792,45.0171821 Z M137.809245,42.2567501 C138.193296,42.4290623 138.487931,42.6745214 138.692661,42.9945999 C138.896902,43.3141875 139,43.694649 139,44.1345115 C139,44.568974 138.896902,44.9474718 138.692661,45.2704958 C138.487931,45.593029 138.193296,45.8404516 137.809245,46.011782 C137.425193,46.1826215 136.974201,46.2680412 136.456758,46.2680412 L135.108668,46.2680412 L135.108668,48 L134,48 L134,42 L136.456758,42 C136.974201,42 137.425193,42.0854197 137.809245,42.2567501 Z" id="Fill-25" fill="#D8127D"></path>
                <path d="M144.703463,45.7368679 L143.486531,43.1143839 L142.27805,45.7368679 L144.703463,45.7368679 Z M145.100128,46.6116838 L141.872406,46.6116838 L141.235947,48 L140,48 L142.905531,42 L144.086018,42 L147,48 L145.746095,48 L145.100128,46.6116838 Z" id="Fill-26" fill="#D8127D"></path>
                <path d="M153.688597,44.9940589 C153.895698,45.2807351 154,45.6178707 154,46.0054658 C154,46.4124683 153.880152,46.7656844 153.640959,47.0656686 C153.401264,47.3662072 153.081336,47.5963245 152.682178,47.7582383 C152.282519,47.9190431 151.845251,48 151.372881,48 C150.964698,48 150.554508,47.9367871 150.142313,47.8103612 C149.73112,47.6855989 149.350015,47.4965146 149,47.2442174 L149.367064,46.3254119 C149.636345,46.5244772 149.933708,46.6780735 150.260656,46.7850919 C150.587103,46.8915558 150.911543,46.9447877 151.232474,46.9447877 C151.694314,46.9447877 152.077926,46.8444233 152.383813,46.644249 C152.690703,46.4446293 152.843647,46.1695976 152.843647,45.8219265 C152.843647,45.5247148 152.732324,45.2990336 152.511182,45.1432193 C152.289038,44.9885139 151.98265,44.910884 151.591515,44.910884 L150.164377,44.910884 L150.164377,43.9238752 L151.504262,43.9238752 C151.842243,43.9238752 152.108515,43.8456907 152.301073,43.6915399 C152.49313,43.5368346 152.589911,43.3266793 152.589911,43.0621831 C152.589911,42.7461185 152.459533,42.4999208 152.200782,42.326917 C151.940026,42.1522497 151.609568,42.0651933 151.206399,42.0651933 C150.932605,42.0651933 150.649283,42.1084442 150.357437,42.1955006 C150.064587,42.282557 149.791295,42.4106464 149.533547,42.5775507 L149.175509,41.5617079 C149.490422,41.3737326 149.824892,41.2339987 150.177916,41.1408428 C150.530438,41.0471324 150.882961,41 151.232474,41 C151.688296,41 152.106509,41.0776299 152.48962,41.2323352 C152.871227,41.3875951 153.176111,41.6082858 153.404272,41.894962 C153.631933,42.1827471 153.745261,42.5198828 153.745261,42.9080323 C153.745261,43.2429499 153.663524,43.5368346 153.500552,43.7880228 C153.336576,44.04032 153.112426,44.2332858 152.826597,44.3691381 C153.194163,44.4983365 153.481496,44.7062738 153.688597,44.9940589" id="Fill-27" fill="#D8127D"></path>
                <path d="M159.669148,46.5850768 C160.015798,46.3812744 160.289078,46.0956169 160.486328,45.729218 C160.684642,45.363376 160.783002,44.9541007 160.783002,44.4991647 C160.783002,44.0453425 160.684642,43.6360671 160.486328,43.2702251 C160.289078,42.9043831 160.015798,42.6181688 159.669148,42.4143664 C159.322497,42.2100072 158.932781,42.1075491 158.499468,42.1075491 C158.066687,42.1075491 157.676971,42.2100072 157.330321,42.4143664 C156.98367,42.6181688 156.71039,42.9043831 156.51314,43.2702251 C156.314826,43.6360671 156.216467,44.0453425 156.216467,44.4991647 C156.216467,44.9541007 156.314826,45.363376 156.51314,45.729218 C156.71039,46.0956169 156.98367,46.3812744 157.330321,46.5850768 C157.676971,46.789436 158.066687,46.891894 158.499468,46.891894 C158.932781,46.891894 159.322497,46.789436 159.669148,46.5850768 Z M156.707732,47.5484051 C156.175528,47.2465993 155.757633,46.8289714 155.45458,46.2938509 C155.151527,45.7587304 155,45.1606873 155,44.4991647 C155,43.8387559 155.151527,43.2407128 155.45458,42.7055922 C155.757633,42.1710286 156.175528,41.7528438 156.707732,41.4515949 C157.240468,41.1497892 157.837536,41 158.499468,41 C159.162996,41 159.759,41.1497892 160.291736,41.4515949 C160.82394,41.7528438 161.241835,42.1699149 161.544888,42.7005807 C161.847942,43.2323602 162,43.8326307 162,44.4991647 C162,45.1673693 161.847942,45.767083 161.544888,46.2977488 C161.241835,46.8300851 160.82394,47.2465993 160.291736,47.5484051 C159.759,47.8490971 159.162996,48 158.499468,48 C157.837536,48 157.240468,47.8490971 156.707732,47.5484051 Z" id="Fill-28" fill="#D8127D"></path>
                <path d="M168.903012,46.25135 C168.903012,45.6681394 168.517843,45.377516 167.747026,45.377516 L166.072045,45.377516 L166.072045,47.1423662 L167.747026,47.1423662 C168.517843,47.1423662 168.903012,46.8458517 168.903012,46.25135 Z M166.072045,44.562592 L167.529739,44.562592 C167.881811,44.562592 168.149463,44.4918999 168.333173,44.3485518 C168.517843,44.2052037 168.609459,43.994109 168.609459,43.7142857 C168.609459,43.4344624 168.517843,43.2209131 168.333173,43.0751105 C168.149463,42.9302896 167.881811,42.8566519 167.529739,42.8566519 L166.072045,42.8566519 L166.072045,44.562592 Z M169.706926,45.406971 C169.902629,45.6553756 170,45.9661267 170,46.3372607 C170,46.862543 169.810054,47.2719686 169.43112,47.563083 C169.051228,47.8541973 168.501535,48 167.780602,48 L165,48 L165,42 L167.621834,42 C168.280411,42 168.794129,42.1340206 169.162989,42.4025528 C169.53089,42.6715758 169.71556,43.0510555 169.71556,43.5429553 C169.71556,43.8576338 169.641213,44.1291114 169.493477,44.3568974 C169.345261,44.5856652 169.131811,44.7594502 168.853127,44.8797251 C169.226305,44.9828179 169.511704,45.1585665 169.706926,45.406971 Z" id="Fill-29" fill="#D8127D"></path>
                <path d="M176.703463,45.7368679 L175.48706,43.1143839 L174.27805,45.7368679 L176.703463,45.7368679 Z M177.0996,46.6116838 L173.872406,46.6116838 L173.235947,48 L172,48 L174.905003,42 L176.086018,42 L179,48 L177.746095,48 L177.0996,46.6116838 Z" id="Fill-30" fill="#D8127D"></path>
                <polyline id="Fill-31" fill="#D8127D" points="185 42.9430535 183.040534 42.9430535 183.040534 48 181.950759 48 181.950759 42.9430535 180 42.9430535 180 42 185 42 185 42.9430535"></polyline>
                <polyline id="Fill-32" fill="#D8127D" points="192 47.0652921 192 48 187 48 187 42 191.866928 42 191.866928 42.9337261 188.238002 42.9337261 188.238002 44.4943544 191.456261 44.4943544 191.456261 45.4113893 188.238002 45.4113893 188.238002 47.0652921 192 47.0652921"></polyline>
                <path d="M199,41 L199,47.9011858 L197.874276,47.9011858 L197.874276,42.0846979 L195.445452,42.0846979 L195.39355,43.8091474 C195.36382,44.7763975 195.292769,45.5595709 195.182414,46.160926 C195.070547,46.7628458 194.891156,47.2196499 194.644747,47.5313382 C194.398337,47.8435912 194.058705,48 193.624339,48 C193.472159,48 193.264046,47.9666855 193,47.9011858 L193.079113,46.7876906 C193.155203,46.8136646 193.243386,46.826087 193.342152,46.826087 C193.700428,46.826087 193.954397,46.5889328 194.10456,46.1112366 C194.253212,45.635799 194.345931,44.8848108 194.381204,43.8588368 L194.469388,41 L199,41" id="Fill-33" fill="#D8127D"></path>
                <path d="M205.532908,46.8429062 C205.767682,46.6431026 205.885069,46.3519882 205.885069,45.9690722 C205.885069,45.2434953 205.433694,44.8797251 204.529961,44.8797251 L203.097741,44.8797251 L203.097741,47.1423662 L204.529961,47.1423662 C204.964637,47.1423662 205.299116,47.0432008 205.532908,46.8429062 Z M206.420923,44.5159548 C206.806974,44.838488 207,45.3166421 207,45.9509082 C207,46.6141384 206.788802,47.1212568 206.365422,47.4727541 C205.942534,47.8242514 205.347741,48 204.581532,48 L202,48 L202,42 L203.097741,42 L203.097741,44.0314188 L204.761788,44.0314188 C205.482318,44.0314188 206.035855,44.1929308 206.420923,44.5159548 Z" id="Fill-34" fill="#D8127D"></path>
                <polyline id="Fill-35" fill="#D8127D" points="216 42 216 48 214.745535 48 214.745535 45.4285714 211.254465 45.4285714 211.254465 48 210 48 210 42 211.254465 42 211.254465 44.4771723 214.745535 44.4771723 214.745535 42 216 42"></polyline>
                <path d="M221.70329,45.7368679 L220.486266,43.1143839 L219.277166,45.7368679 L221.70329,45.7368679 Z M222.099457,46.6116838 L218.872019,46.6116838 L218.235512,48 L217,48 L219.905222,42 L221.085798,42 L224,48 L222.746001,48 L222.099457,46.6116838 Z" id="Fill-36" fill="#D8127D"></path>
                <path d="M227.493723,43.2601865 C227.251471,43.4712813 227.129855,43.7800687 227.129855,44.185567 C227.129855,44.5802651 227.246567,44.8841433 227.480483,45.0981836 C227.714888,45.3132057 228.053747,45.4197349 228.5,45.4197349 L229.903982,45.4197349 L229.903982,42.9430535 L228.542664,42.9430535 C228.085622,42.9430535 227.736465,43.04811 227.493723,43.2601865 Z M231,42 L231,48 L229.903982,48 L229.903982,46.3289151 L228.302864,46.3289151 L227.190173,48 L226.016673,48 L227.30051,46.1482572 C226.884661,45.9936181 226.562475,45.7501227 226.337878,45.4153166 C226.111809,45.0814924 226,44.6769759 226,44.2022582 C226,43.7457045 226.102001,43.3514973 226.307474,43.0201276 C226.513927,42.6882671 226.804727,42.4354443 227.180855,42.2611684 C227.557964,42.0873834 228.000294,42 228.508337,42 L231,42 Z" id="Fill-37" fill="#D8127D"></path>
                <polyline id="Fill-38" fill="#D8127D" points="243 42 243 48 241.759252 48 241.759252 42.9430535 238.241303 42.9430535 238.241303 48 237 48 237 42 243 42"></polyline>
                <path d="M251,41 L251,47.9011858 L249.87478,47.9011858 L249.87478,42.0846979 L247.445956,42.0846979 L247.39355,43.8091474 C247.36382,44.7763975 247.293273,45.5595709 247.182414,46.160926 C247.070547,46.7628458 246.891156,47.2196499 246.645251,47.5313382 C246.398337,47.8435912 246.058705,48 245.624339,48 C245.472663,48 245.26455,47.9666855 245,47.9011858 L245.079113,46.7876906 C245.155707,46.8136646 245.243386,46.826087 245.342656,46.826087 C245.700932,46.826087 245.9549,46.5889328 246.104056,46.1112366 C246.253212,45.635799 246.345931,44.8848108 246.381204,43.8588368 L246.469388,41 L251,41" id="Fill-39" fill="#D8127D"></path>
                <path d="M257.669148,46.5850768 C258.015798,46.3812744 258.288546,46.0956169 258.485797,45.729218 C258.684111,45.363376 258.783533,44.9541007 258.783533,44.4991647 C258.783533,44.0453425 258.684111,43.6360671 258.485797,43.2702251 C258.288546,42.9043831 258.015798,42.6181688 257.669148,42.4143664 C257.322497,42.2100072 256.932781,42.1075491 256.499468,42.1075491 C256.066687,42.1075491 255.676439,42.2100072 255.330321,42.4143664 C254.983138,42.6181688 254.710922,42.9043831 254.51314,43.2702251 C254.314826,43.6360671 254.215935,44.0453425 254.215935,44.4991647 C254.215935,44.9541007 254.314826,45.363376 254.51314,45.729218 C254.710922,46.0956169 254.983138,46.3812744 255.330321,46.5850768 C255.676439,46.789436 256.066687,46.891894 256.499468,46.891894 C256.932781,46.891894 257.322497,46.789436 257.669148,46.5850768 Z M254.707732,47.5484051 C254.17606,47.2465993 253.757633,46.8289714 253.45458,46.2938509 C253.150995,45.7587304 253,45.1606873 253,44.4991647 C253,43.8387559 253.150995,43.2407128 253.45458,42.7055922 C253.757633,42.1710286 254.17606,41.7528438 254.707732,41.4515949 C255.240468,41.1497892 255.838068,41 256.499468,41 C257.162464,41 257.758469,41.1497892 258.291736,41.4515949 C258.823409,41.7528438 259.241303,42.1699149 259.544888,42.7005807 C259.847942,43.2323602 260,43.8326307 260,44.4991647 C260,45.1673693 259.847942,45.767083 259.544888,46.2977488 C259.241303,46.8300851 258.823409,47.2465993 258.291736,47.5484051 C257.758469,47.8490971 257.162464,48 256.499468,48 C255.838068,48 255.240468,47.8490971 254.707732,47.5484051 Z" id="Fill-40" fill="#D8127D"></path>
                <path d="M271,47.5594684 L271,50 L269.920165,50 L269.920165,48.5962356 L268.912491,48.5962356 L268.912491,47.5594684 L271,47.5594684 Z M270.09232,42 L270.09232,48.5962356 L262,48.5962356 L262,42 L263.152511,42 L263.152511,47.5594684 L265.475059,47.5594684 L265.475059,42 L266.626024,42 L266.626024,47.5594684 L268.939293,47.5594684 L268.939293,42 L270.09232,42 Z" id="Fill-41" fill="#D8127D"></path>
                <path d="M277.703463,45.7368679 L276.486531,43.1143839 L275.27805,45.7368679 L277.703463,45.7368679 Z M278.100128,46.6116838 L274.872406,46.6116838 L274.235947,48 L273,48 L275.905003,42 L277.086018,42 L280,48 L278.746095,48 L278.100128,46.6116838 Z" id="Fill-42" fill="#D8127D"></path>
                <path d="M283.231653,46.3397423 C283.129113,46.9080483 282.967317,47.3149835 282.745234,47.5594684 L285.939418,47.5594684 L285.939418,43.0367672 L283.473316,43.0367672 L283.428487,44.2046819 C283.399632,45.0595696 283.333162,45.7708966 283.231653,46.3397423 Z M288,47.5594684 L288,50 L286.919985,50 L286.919985,48.5962356 L282.088259,48.5962356 L282.088259,50 L281,50 L281.00876,47.5594684 L281.279279,47.5594684 C281.674494,47.5411185 281.951711,47.2340282 282.110931,46.6414356 C282.269636,46.0472239 282.367538,45.1971936 282.403607,44.0924239 L282.47523,42 L287.091056,42 L287.091056,47.5594684 L288,47.5594684 Z" id="Fill-43" fill="#D8127D"></path>
                <polyline id="Fill-44" fill="#D8127D" points="292.53779 45.4712813 291.2596 45.4712813 291.2596 48 290 48 290 42 291.2596 42 291.2596 44.5110457 292.577786 44.5110457 294.553939 42 295.911558 42 293.560229 44.9057437 296 48 294.553939 48 292.53779 45.4712813"></polyline>
                <path d="M301.702935,45.7368679 L300.486531,43.1143839 L299.27805,45.7368679 L301.702935,45.7368679 Z M302.0996,46.6116838 L298.872406,46.6116838 L298.235947,48 L297,48 L299.905003,42 L301.08549,42 L304,48 L302.746095,48 L302.0996,46.6116838 Z" id="Fill-45" fill="#D8127D"></path>
            </g>
        </g>
    </g>
</svg>